<svg width="397" height="397" viewBox="0 0 397 397" fill="none" xmlns="http://www.w3.org/2000/svg">
<path d="M349.473 338.741C341.356 347.152 333.675 352.576 327.607 356.861C256.279 407.235 171.879 392.551 153.941 388.965C127.453 383.67 76.2526 373.435 39.2354 330.588C-16.7685 265.764 -8.04785 163.635 35.3925 96.2191C43.3384 83.8876 85.3111 15.4444 170.621 4.46828C222.249 -2.17437 282.431 11.2231 326.013 47.1621C417.496 122.601 410.983 275.002 349.473 338.741Z" fill="url(#paint0_linear_1078_21)"/>
<path d="M75.6306 112.589C75.6673 110.683 77.269 109.149 79.2321 109.149H198.304C200.294 109.149 202.407 110.73 202.407 112.663V382.544C202.407 383.986 201.566 385.369 200.514 386.388C199.463 387.406 197.912 387.976 196.427 387.972L76.0506 387.653C74.5527 387.649 73.0881 387.062 72.0402 386.022C70.9924 384.982 70.4025 383.574 70.4307 382.119L75.6306 112.589Z" fill="#BDD0FB"/>
<g opacity="0.52">
<path d="M144.012 128.275L182.963 128.144L182.948 123.411L144.041 123.531L144.012 128.275Z" fill="white"/>
<path d="M143.906 145.708L183.018 145.535L183.003 140.763L143.936 140.924L143.906 145.708Z" fill="white"/>
<path d="M143.797 163.285L183.07 163.069L183.055 158.258L143.826 158.462L143.797 163.285Z" fill="white"/>
<path d="M143.688 181.01L183.123 180.75L183.108 175.898L143.717 176.147L143.688 181.01Z" fill="white"/>
<path d="M143.578 198.881L183.178 198.576L183.163 193.685L143.608 193.977L143.578 198.881Z" fill="white"/>
<path d="M143.359 235.074L183.292 234.678L183.276 229.704L143.39 230.087L143.359 235.074Z" fill="white"/>
<path d="M143.016 290.518L183.457 289.979L183.442 284.878L143.047 285.403L143.016 290.518Z" fill="white"/>
<path d="M143.469 216.901L183.234 216.551L183.219 211.618L143.499 211.956L143.469 216.901Z" fill="white"/>
<path d="M143.246 253.399L183.347 252.956L183.331 247.94L143.277 248.371L143.246 253.399Z" fill="white"/>
<path d="M143.133 271.88L183.403 271.389L183.388 266.331L143.164 266.808L143.133 271.88Z" fill="white"/>
<path d="M142.902 309.315L183.517 308.727L183.501 303.582L142.934 304.156L142.902 309.315Z" fill="white"/>
<path d="M142.785 328.274L183.574 327.636L183.558 322.447L142.817 323.071L142.785 328.274Z" fill="white"/>
<path d="M142.668 347.396L183.632 346.707L183.616 341.474L142.7 342.148L142.668 347.396Z" fill="white"/>
<path d="M142.551 366.684L183.692 365.944L183.676 360.665L142.583 361.391L142.551 366.684Z" fill="white"/>
<path d="M92.9414 128.447L132.137 128.315L132.179 123.567L93.0278 123.688L92.9414 128.447Z" fill="white"/>
<path d="M92.625 145.935L131.983 145.761L132.025 140.974L92.7123 141.136L92.625 145.935Z" fill="white"/>
<path d="M92.3047 163.57L131.826 163.352L131.869 158.525L92.3925 158.731L92.3047 163.57Z" fill="white"/>
<path d="M91.9805 181.35L131.667 181.089L131.71 176.222L92.0692 176.471L91.9805 181.35Z" fill="white"/>
<path d="M91.6562 199.281L131.509 198.974L131.552 194.066L91.7457 194.361L91.6562 199.281Z" fill="white"/>
<path d="M90.9961 235.592L131.185 235.194L131.23 230.203L91.0871 230.589L90.9961 235.592Z" fill="white"/>
<path d="M89.9844 291.225L130.69 290.682L130.735 285.563L90.0777 286.092L89.9844 291.225Z" fill="white"/>
<path d="M91.3242 217.361L131.344 217.008L131.389 212.06L91.4144 212.399L91.3242 217.361Z" fill="white"/>
<path d="M90.6602 253.98L131.02 253.534L131.065 248.502L90.7519 248.935L90.6602 253.98Z" fill="white"/>
<path d="M90.3242 272.523L130.856 272.03L130.901 266.954L90.4168 267.435L90.3242 272.523Z" fill="white"/>
<path d="M89.6406 310.086L130.521 309.495L130.567 304.332L89.7348 304.91L89.6406 310.086Z" fill="white"/>
<path d="M89.2969 329.11L130.353 328.468L130.4 323.261L89.3917 323.889L89.2969 329.11Z" fill="white"/>
<path d="M88.9453 348.3L130.18 347.606L130.227 342.354L89.041 343.034L88.9453 348.3Z" fill="white"/>
<path d="M88.5938 367.655L130.008 366.91L130.055 361.612L88.6903 362.343L88.5938 367.655Z" fill="white"/>
</g>
<path d="M7.30055 187.03C7.35277 184.826 9.61629 183.012 12.3909 183.012H117.264C120.076 183.012 122.837 184.92 122.837 187.155V386.869C122.837 387.944 122.058 388.974 121.1 389.733C120.142 390.492 118.723 390.917 117.371 390.915L7.72003 390.677C6.35557 390.674 5.01971 390.236 4.06543 389.461C3.11114 388.686 2.57305 387.615 2.59852 386.531L7.30055 187.03Z" fill="#BDD0FB"/>
<path d="M84.5352 206.546L114.411 206.514L114.648 194.345H84.7432L84.5352 206.546Z" fill="url(#paint1_linear_1078_21)"/>
<path d="M51.0508 206.54L80.8968 206.508L81.1014 194.345H51.2263L51.0508 206.54Z" fill="url(#paint2_linear_1078_21)"/>
<path d="M17.5938 206.534L47.4099 206.502L47.5819 194.345H17.737L17.5938 206.534Z" fill="url(#paint3_linear_1078_21)"/>
<path d="M84.1641 228.39L113.988 228.405L114.224 216.316L84.3714 216.306L84.1641 228.39Z" fill="url(#paint4_linear_1078_21)"/>
<path d="M50.7344 228.372L80.5285 228.387L80.7324 216.304L50.9094 216.294L50.7344 228.372Z" fill="url(#paint5_linear_1078_21)"/>
<path d="M17.3359 228.356L47.1001 228.371L47.2715 216.293L17.4786 216.283L17.3359 228.356Z" fill="url(#paint6_linear_1078_21)"/>
<path d="M83.7891 250.082L113.561 250.107L113.796 238.059L83.9957 238.04L83.7891 250.082Z" fill="url(#paint7_linear_1078_21)"/>
<path d="M50.418 250.054L80.1603 250.079L80.3633 238.037L50.5922 238.018L50.418 250.054Z" fill="url(#paint8_linear_1078_21)"/>
<path d="M17.082 250.026L46.7945 250.051L46.9651 238.016L17.2241 237.996L17.082 250.026Z" fill="url(#paint9_linear_1078_21)"/>
<path d="M83.418 271.7L113.138 271.734L113.373 259.728L83.6237 259.699L83.418 271.7Z" fill="url(#paint10_linear_1078_21)"/>
<path d="M50.1055 271.662L79.7963 271.696L79.9986 259.696L50.2792 259.667L50.1055 271.662Z" fill="url(#paint11_linear_1078_21)"/>
<path d="M16.8242 271.624L46.4851 271.658L46.6554 259.664L16.9657 259.635L16.8242 271.624Z" fill="url(#paint12_linear_1078_21)"/>
<path d="M83.0508 293.243L112.72 293.288L112.953 281.323L83.256 281.284L83.0508 293.243Z" fill="url(#paint13_linear_1078_21)"/>
<path d="M49.793 293.194L79.4323 293.238L79.6339 281.279L49.9661 281.24L49.793 293.194Z" fill="url(#paint14_linear_1078_21)"/>
<path d="M16.5703 293.145L46.18 293.188L46.3495 281.236L16.7114 281.197L16.5703 293.145Z" fill="url(#paint15_linear_1078_21)"/>
<path d="M82.6836 314.713L112.301 314.767L112.534 302.843L82.8879 302.795L82.6836 314.713Z" fill="url(#paint16_linear_1078_21)"/>
<path d="M49.4844 314.652L79.0725 314.706L79.2733 302.788L49.6569 302.74L49.4844 314.652Z" fill="url(#paint17_linear_1078_21)"/>
<path d="M16.3203 314.593L45.8788 314.646L46.0478 302.735L16.461 302.687L16.3203 314.593Z" fill="url(#paint18_linear_1078_21)"/>
<path d="M82.3125 336.107L111.879 336.17L112.111 324.288L82.5162 324.23L82.3125 336.107Z" fill="url(#paint19_linear_1078_21)"/>
<path d="M49.1719 336.037L78.7089 336.1L78.909 324.224L49.3437 324.166L49.1719 336.037Z" fill="url(#paint20_linear_1078_21)"/>
<path d="M16.0664 335.967L45.5739 336.03L45.7425 324.159L16.2066 324.102L16.0664 335.967Z" fill="url(#paint21_linear_1078_21)"/>
<path d="M81.9492 357.43L111.464 357.502L111.696 345.661L82.1522 345.594L81.9492 357.43Z" fill="url(#paint22_linear_1078_21)"/>
<path d="M48.8633 357.349L78.3492 357.421L78.5488 345.585L49.0345 345.519L48.8633 357.349Z" fill="url(#paint23_linear_1078_21)"/>
<path d="M15.8164 357.268L45.2732 357.34L45.4408 345.51L15.956 345.443L15.8164 357.268Z" fill="url(#paint24_linear_1078_21)"/>
<path d="M81.5859 378.677L111.05 378.759L111.281 366.958L81.7882 366.882L81.5859 378.677Z" fill="url(#paint25_linear_1078_21)"/>
<path d="M48.5586 378.586L77.9939 378.667L78.1929 366.872L48.7293 366.796L48.5586 378.586Z" fill="url(#paint26_linear_1078_21)"/>
<path d="M15.5625 378.495L44.9685 378.576L45.1359 366.787L15.7016 366.711L15.5625 378.495Z" fill="url(#paint27_linear_1078_21)"/>
<path d="M281.05 191.8C281.102 189.595 283.366 187.781 286.141 187.781H391.014C393.825 187.781 396.587 189.69 396.587 191.924V391.638C396.587 392.713 395.808 393.744 394.85 394.503C393.892 395.262 392.473 395.687 391.12 395.684L281.47 395.446C280.105 395.443 278.77 395.005 277.815 394.23C276.861 393.455 276.323 392.384 276.349 391.3L281.05 191.8Z" fill="#BDD0FB"/>
<g opacity="0.5">
<path d="M358.285 211.314L388.161 211.282L388.398 199.113H358.493L358.285 211.314Z" fill="white"/>
<path d="M324.797 211.308L354.643 211.276L354.848 199.113H324.972L324.797 211.308Z" fill="white"/>
<path d="M291.344 211.302L321.16 211.27L321.332 199.113H291.487L291.344 211.302Z" fill="white"/>
<path d="M357.91 233.159L387.734 233.174L387.97 221.084L358.117 221.074L357.91 233.159Z" fill="white"/>
<path d="M324.48 233.141L354.275 233.156L354.478 221.072L324.655 221.062L324.48 233.141Z" fill="white"/>
<path d="M291.086 233.124L320.85 233.139L321.021 221.062L291.228 221.052L291.086 233.124Z" fill="white"/>
<path d="M357.539 254.851L387.311 254.876L387.546 242.828L357.746 242.809L357.539 254.851Z" fill="white"/>
<path d="M324.168 254.824L353.91 254.848L354.113 242.807L324.342 242.787L324.168 254.824Z" fill="white"/>
<path d="M290.828 254.795L320.541 254.82L320.711 242.784L290.97 242.765L290.828 254.795Z" fill="white"/>
<path d="M357.168 276.469L386.888 276.503L387.123 264.497L357.374 264.468L357.168 276.469Z" fill="white"/>
<path d="M323.855 276.43L353.546 276.465L353.748 264.465L324.029 264.436L323.855 276.43Z" fill="white"/>
<path d="M290.574 276.392L320.235 276.427L320.405 264.432L290.716 264.403L290.574 276.392Z" fill="white"/>
<path d="M356.801 298.012L386.47 298.056L386.703 286.092L357.006 286.053L356.801 298.012Z" fill="white"/>
<path d="M323.543 297.963L353.182 298.007L353.384 286.049L323.716 286.01L323.543 297.963Z" fill="white"/>
<path d="M290.32 297.914L319.93 297.958L320.1 286.005L290.462 285.967L290.32 297.914Z" fill="white"/>
<path d="M356.43 319.482L386.047 319.535L386.28 307.612L356.634 307.563L356.43 319.482Z" fill="white"/>
<path d="M323.234 319.421L352.822 319.474L353.023 307.557L323.407 307.509L323.234 319.421Z" fill="white"/>
<path d="M290.066 319.361L319.625 319.415L319.794 307.503L290.207 307.455L290.066 319.361Z" fill="white"/>
<path d="M356.062 340.877L385.629 340.94L385.861 329.057L356.266 329L356.062 340.877Z" fill="white"/>
<path d="M322.922 340.806L352.459 340.869L352.659 328.992L323.094 328.935L322.922 340.806Z" fill="white"/>
<path d="M289.816 340.735L319.324 340.798L319.492 328.928L289.957 328.87L289.816 340.735Z" fill="white"/>
<path d="M355.699 362.199L385.215 362.271L385.446 350.429L355.902 350.362L355.699 362.199Z" fill="white"/>
<path d="M322.613 362.118L352.099 362.19L352.299 350.354L322.785 350.287L322.613 362.118Z" fill="white"/>
<path d="M289.562 362.036L319.019 362.108L319.187 350.279L289.702 350.212L289.562 362.036Z" fill="white"/>
<path d="M355.336 383.446L384.8 383.527L385.031 371.727L355.538 371.65L355.336 383.446Z" fill="white"/>
<path d="M322.305 383.354L351.74 383.436L351.939 371.641L322.475 371.564L322.305 383.354Z" fill="white"/>
<path d="M289.312 383.264L318.719 383.345L318.886 371.556L289.452 371.479L289.312 383.264Z" fill="white"/>
</g>
<path d="M176.797 246.129C168.239 219.256 151.679 197.84 132.063 185.25C114.527 173.995 101.894 156.468 97.2166 136.221C96.7249 134.093 96.1406 131.958 95.461 129.825C85.1672 97.5058 56.934 77.6408 32.4002 85.4549C7.86606 93.2689 -3.67806 125.803 6.61576 158.122C8.72033 164.731 11.5757 170.817 14.9963 176.252C25.9129 193.596 30.1847 214.399 26.1681 234.52C22.578 252.501 23.5522 272.747 29.9691 292.894C39.5394 322.942 59.1132 346.169 81.7775 357.863C90.3502 362.286 98.0806 368.233 104.482 375.42C115.12 387.363 130.111 392.977 143.885 388.59C158.744 383.857 168.027 368.811 168.695 351.255C169.073 341.321 171.409 331.584 175.217 322.378C184.205 300.646 185.451 273.298 176.797 246.129Z" fill="#91B3FA"/>
<path opacity="0.57" d="M51.9416 117.1C61.9497 137.438 71.2932 158.083 80.4197 178.825C82.7036 184.009 84.9037 189.23 87.1205 194.443L90.4444 202.264L93.7027 210.113C95.8544 215.353 98.0791 220.564 100.171 225.83L106.449 241.625C110.499 252.209 114.639 262.758 118.491 273.417C120.425 278.743 122.463 284.031 124.287 289.397L129.836 305.467C137.015 326.966 143.656 348.657 149.181 370.643L148.232 370.892L143.469 354.601L142.287 350.527L141.004 346.483L138.421 338.4L135.855 330.313C135.004 327.616 134.053 324.951 133.157 322.268C131.329 316.915 129.544 311.548 127.681 306.207C120.091 284.89 112.217 263.674 103.904 242.624C99.6664 232.131 95.5199 221.602 91.209 211.138L87.9976 203.281L84.72 195.451C82.5382 190.23 80.3561 185.009 78.1211 179.809C73.7406 169.373 69.2845 158.967 64.7434 148.598C60.2567 138.206 55.6707 127.853 51.0547 117.519L51.9416 117.1Z" fill="white"/>
<path d="M248.394 192.713C244.394 163.366 231.173 138.212 213.221 121.633C197.172 106.814 187.299 86.3932 186.11 64.6026C185.985 62.3122 185.766 59.9984 185.448 57.6684C180.638 22.3726 155.112 -3.29276 128.434 0.343246C101.757 3.97911 84.0301 35.5396 88.8407 70.8353C89.8243 78.0527 91.6749 84.8656 94.2246 91.1072C102.361 111.027 103.033 133.319 95.2871 153.404C88.3649 171.352 85.7384 192.471 88.7371 214.474C93.2098 247.289 109.212 274.863 130.465 291.067C138.504 297.195 145.402 304.748 150.709 313.343C159.527 327.625 173.966 336.149 188.943 334.107C205.101 331.905 217.362 318.024 221.198 299.986C223.369 289.778 227.521 280.13 233.094 271.298C246.251 250.448 252.438 222.386 248.394 192.713Z" fill="#7D97F4"/>
<path opacity="0.57" d="M142.896 36.6182C149.56 59.47 155.485 82.5176 161.169 105.627C162.592 111.404 163.923 117.203 165.272 122.997L167.294 131.689L169.244 140.398C170.521 146.209 171.879 152.003 173.09 157.829L176.726 175.305C179.001 186.987 181.375 198.649 183.433 210.372C184.47 216.232 185.621 222.071 186.539 227.953L189.374 245.58C192.916 269.12 195.869 292.761 197.619 316.504L196.597 316.59L194.61 298.875L194.124 294.447L193.526 290.031L192.315 281.201L191.121 272.372C190.728 269.428 190.225 266.499 189.784 263.562C188.86 257.693 187.983 251.818 187.022 245.955C183.024 222.53 178.715 199.157 173.925 175.877C171.44 164.255 169.056 152.613 166.491 141.007L164.591 132.298L162.618 123.605C161.306 117.809 159.994 112.012 158.624 106.229C155.982 94.6403 153.256 83.069 150.437 71.5206C147.678 59.9575 144.809 48.4174 141.906 36.8916L142.896 36.6182Z" fill="white"/>
<path d="M371.009 394.425H138.139C136.319 394.425 134.844 392.95 134.844 391.13V76.4459C134.844 74.6259 136.319 73.1504 138.139 73.1504H371.01C372.83 73.1504 374.305 74.6259 374.305 76.4459V391.13C374.305 392.95 372.829 394.425 371.009 394.425Z" fill="url(#paint28_linear_1078_21)"/>
<path d="M333.542 352.105H175.101C169.095 352.105 164.227 347.236 164.227 341.23V132.292C164.227 126.286 169.095 121.417 175.101 121.417H333.542C339.548 121.417 344.417 126.286 344.417 132.292V341.23C344.417 347.236 339.548 352.105 333.542 352.105Z" fill="#7D97F4"/>
<path d="M327.546 336.056H181.239C179.437 336.056 177.977 334.595 177.977 332.794V143.656C177.977 141.854 179.437 140.394 181.239 140.394H327.546C329.348 140.394 330.809 141.854 330.809 143.656V332.794C330.809 334.595 329.348 336.056 327.546 336.056Z" fill="url(#paint29_linear_1078_21)"/>
<path d="M254.136 104.949C258.093 104.949 261.3 101.742 261.3 97.7858C261.3 93.8294 258.093 90.6221 254.136 90.6221C250.18 90.6221 246.973 93.8294 246.973 97.7858C246.973 101.742 250.18 104.949 254.136 104.949Z" fill="url(#paint30_linear_1078_21)"/>
<path d="M300.419 213.431L208.256 214.964C201.242 215.08 195.535 220.535 195.535 227.146V285.187C195.535 291.798 201.242 296.929 208.256 296.647L300.419 292.946C307.039 292.68 312.387 287.286 312.387 280.896V224.802C312.387 218.412 307.039 213.321 300.419 213.431Z" fill="url(#paint31_linear_1078_21)"/>
<path d="M305.083 202.935C302.292 202.976 300.026 200.822 300.026 198.123V185.42C300.026 172.676 289.246 162.34 275.902 162.378L245.878 162.465C232.19 162.505 220.973 173.147 220.973 186.188V199.187C220.973 201.95 218.597 204.224 215.661 204.268C212.72 204.312 210.332 202.101 210.332 199.331V186.291C210.332 167.678 226.368 152.534 245.878 152.534H275.902C294.858 152.534 310.126 167.243 310.126 185.322V197.987C310.126 200.678 307.87 202.893 305.083 202.935Z" fill="url(#paint32_linear_1078_21)"/>
<path d="M269.247 245.597C269.247 239.147 263.616 234.083 256.771 234.548C250.718 234.96 245.712 239.807 245.385 245.595C245.131 250.086 247.6 253.969 251.352 255.932C252.948 256.767 253.74 258.528 253.43 260.269L250.798 275.035C250.463 276.916 251.975 278.568 253.964 278.497L260.727 278.255C262.705 278.184 264.206 276.431 263.874 274.581L261.244 259.951C260.93 258.206 261.837 256.472 263.438 255.516C266.918 253.435 269.247 249.745 269.247 245.597Z" fill="url(#paint33_linear_1078_21)"/>
<path d="M84.1478 394.987C84.1498 394.861 84.1414 394.733 84.1089 394.604C82.1978 387.027 72.7122 382.308 72.7122 382.308L68.9534 382.602C66.7923 389.28 67.07 393.376 67.4171 395.2C67.4267 395.252 67.4423 395.3 67.4559 395.35C70.5565 395.627 76.9383 395.807 84.1478 394.987Z" fill="url(#paint34_linear_1078_21)"/>
<path d="M67.457 395.349C67.6244 395.958 68.0742 396.433 68.6498 396.554C73.0605 397.481 80.0709 396.735 83.0143 396.35C83.6637 396.265 84.1384 395.664 84.1491 394.986C76.9395 395.807 70.5577 395.626 67.457 395.349Z" fill="#91B3FA"/>
<path d="M67.4414 377.004L69.0334 384.667C69.15 385.229 69.5815 385.65 70.1041 385.699C70.7438 385.759 71.6546 385.794 72.5705 385.659C73.3917 385.539 73.9637 384.704 73.8181 383.809L72.7116 377.004H67.4414Z" fill="url(#paint35_linear_1078_21)"/>
<path d="M100.425 395.252C96.2737 395.136 94.1266 394.647 93.0166 394.193C93.014 394.606 93.0163 395.026 93.0297 395.461C93.044 395.926 93.3882 396.297 93.8119 396.295L116.605 396.148C117.332 396.143 117.758 395.299 117.442 394.632C114.454 394.879 106.842 395.432 100.425 395.252Z" fill="#91B3FA"/>
<path d="M117.442 394.633C117.414 394.575 117.391 394.515 117.351 394.461C115.338 391.648 110.211 386.047 100.081 383.618L95.2206 383.465C95.2206 383.465 93.0565 387.226 93.0156 394.194C94.1257 394.647 96.2728 395.136 100.424 395.252C106.841 395.432 114.453 394.88 117.442 394.633Z" fill="url(#paint36_linear_1078_21)"/>
<path d="M94.1055 376.325C94.1822 376.684 95.1934 382.137 95.5851 384.251C95.6782 384.753 96.0697 385.122 96.5354 385.148C97.3675 385.195 98.7096 385.2 99.8639 384.887C100.487 384.718 100.905 384.083 100.861 383.378L100.317 374.753L94.1055 376.325Z" fill="url(#paint37_linear_1078_21)"/>
<path d="M90.4238 275.64C90.4238 275.64 97.1094 321.58 101.934 376.247C102.024 377.265 101.213 378.151 100.212 378.362C98.7386 378.672 96.572 379.041 94.7785 378.991C93.8211 378.964 93.0207 378.254 92.8596 377.309C91.216 367.671 79.4878 315.941 76.4096 304.556C76.4096 304.556 72.8738 352.917 74.004 378.008C74.0322 378.632 73.5754 379.173 72.955 379.244C72.0139 379.353 70.5085 379.436 68.5925 379.232C67.8653 379.155 67.2785 378.605 67.1745 377.881C66.0038 369.724 59.2653 321.167 59.5518 286.189C59.568 284.217 61.8662 268.01 61.8662 268.01L90.4238 275.64Z" fill="url(#paint38_linear_1078_21)"/>
<path d="M93.0117 198.385L93.9068 222.424C96.4491 223.299 98.8696 223.979 101.174 224.488C102.616 219.846 105.791 214.149 108.39 209.914C98.8393 206.538 93.0117 198.385 93.0117 198.385Z" fill="url(#paint39_linear_1078_21)"/>
<path d="M60.862 278.287C60.1745 278.042 59.6954 277.419 59.6205 276.694C58.7315 268.068 54.4269 214.588 81.603 192.588C81.603 192.588 83.1614 188.511 95.9716 198.534C108.782 208.557 101.923 219.063 98.8563 233.554C95.1451 251.089 88.6335 265.422 91.5145 276.213C91.7134 276.958 91.3218 277.74 90.5986 278.006C80.6477 281.674 70.735 281.795 60.862 278.287Z" fill="url(#paint40_linear_1078_21)"/>
<path d="M92.2001 176.565C92.1915 177.326 81.3398 192.74 81.3398 192.74C81.3398 192.74 83.2876 196.576 92.5864 199.691L100.613 183.187L92.2001 176.565Z" fill="url(#paint41_linear_1078_21)"/>
<path d="M86.8247 229.306C86.7569 229.306 86.688 229.287 86.6278 229.246C77.9589 223.389 73.8807 213.935 73.8404 213.84C73.7647 213.66 73.8483 213.454 74.0273 213.378C74.207 213.302 74.4131 213.385 74.4895 213.565C74.5289 213.658 78.5311 222.925 87.0223 228.662C87.1836 228.771 87.226 228.99 87.1168 229.151C87.0492 229.252 86.9378 229.306 86.8247 229.306Z" fill="url(#paint42_linear_1078_21)"/>
<path d="M99.7369 216.203C99.6213 216.203 99.5077 216.146 99.4403 216.041C99.4141 216.001 96.7657 211.878 91.7215 202.846C90.1703 200.068 88.1317 198.31 85.6624 197.618C81.573 196.476 77.6318 198.668 77.5929 198.69C77.4232 198.784 77.2088 198.727 77.1125 198.558C77.0165 198.389 77.0753 198.174 77.2445 198.078C77.4145 197.981 81.4683 195.713 85.8457 196.938C88.5055 197.68 90.6896 199.552 92.3368 202.502C97.3683 211.511 100.007 215.619 100.033 215.66C100.138 215.823 100.091 216.041 99.9276 216.147C99.8682 216.185 99.8023 216.203 99.7369 216.203Z" fill="url(#paint43_linear_1078_21)"/>
<path d="M100.744 167.732C100.744 167.732 104.605 176.602 104.865 181.258C105.124 185.913 106.127 188.934 100.744 189.872C95.3611 190.809 90.8265 188.128 88.3698 183.49C88.3698 183.49 84.5206 176.345 85.384 173.418C86.2475 170.492 100.744 167.732 100.744 167.732Z" fill="url(#paint44_linear_1078_21)"/>
<path d="M90.211 180.157L90.5175 180.021C90.9075 179.85 91.0746 179.385 90.8786 179.007C90.1196 177.54 88.6397 174.179 90.5514 173.395C93.0151 172.384 102.774 170.394 104.88 166.932C106.903 163.604 105.11 159.308 102.416 158.086C102.235 158.004 102.023 158.069 101.93 158.244L101.706 158.669C101.552 158.96 101.122 158.916 101.031 158.6C100.943 158.296 100.539 158.238 100.372 158.505C99.7248 159.541 97.9775 161.221 93.3048 162.083C86.6638 163.309 82.2733 165.996 82.164 170.585C82.1571 170.877 81.8469 171.039 81.5978 170.887C81.1075 170.588 80.3229 170.448 79.2742 171.33C77.4504 172.863 78.1968 176.841 82.1949 180.114C82.3849 180.269 82.3833 180.566 82.1776 180.7C81.4528 181.171 80.3723 182.294 83.1719 183.791C86.0677 185.339 88.23 185.212 89.0629 185.074C89.27 185.04 89.4035 184.84 89.3583 184.635L88.4697 180.601C88.4193 180.373 88.5932 180.157 88.8268 180.157H90.211V180.157Z" fill="url(#paint45_linear_1078_21)"/>
<path d="M90.378 181.008C90.378 181.008 88.905 175.342 86.3647 176.93C83.8245 178.519 87.683 183.279 89.7253 183.491L90.378 181.008Z" fill="url(#paint46_linear_1078_21)"/>
<path d="M140.375 196.576C140.375 196.576 138.44 193.145 138.563 191.478C138.686 189.811 137.647 187.362 138.753 187.544C139.858 187.725 140.086 187.577 140.386 189.577C140.687 191.578 144.175 200.316 140.375 196.576Z" fill="url(#paint47_linear_1078_21)"/>
<path d="M140.74 191.121L140.696 197.976C127.595 212.121 116.991 212.954 108.392 209.914C105.792 214.15 102.618 219.846 101.176 224.488C136.162 232.201 144.401 200.038 144.401 200.038C149.139 198.075 150.095 196.927 149.891 195.64L140.74 191.121Z" fill="url(#paint48_linear_1078_21)"/>
<path d="M150.814 184.32C149.695 183.866 147.507 179.694 147.088 181.067C146.669 182.439 147.265 184.32 147.088 184.904C146.911 185.487 144.183 192.201 144.728 193.693C145.121 194.769 147.287 194.61 147.618 196.371C147.727 196.955 148.194 197.374 148.736 197.375C149.278 197.375 149.745 196.956 149.856 196.372C149.9 196.138 151.932 184.774 150.814 184.32Z" fill="url(#paint49_linear_1078_21)"/>
<path d="M115.107 170.043C106.272 187.516 113.275 208.843 130.748 217.677C144.95 224.858 161.698 221.575 172.214 210.712L232.924 241.407C233.932 241.917 235.131 241.875 236.102 241.297L242.039 237.76C242.141 237.699 242.238 237.632 242.331 237.562C242.358 237.542 242.382 237.521 242.408 237.501C242.477 237.446 242.544 237.389 242.607 237.329C242.629 237.308 242.651 237.288 242.672 237.267C242.751 237.189 242.826 237.108 242.896 237.023C242.897 237.022 242.898 237.021 242.899 237.02C243.644 236.112 243.872 234.846 243.416 233.702L238.591 221.607C238.293 220.86 237.732 220.248 237.014 219.884L230.934 216.81L229.324 219.993L224.101 217.352L225.71 214.169L220.823 211.698L219.342 214.626L212.994 211.416L214.474 208.488L212.109 207.292L211.347 208.799L206.024 206.108L206.786 204.601L202.647 202.508L201.038 205.691L198.081 204.196L199.69 201.013L197.128 199.717L195.518 202.9L190.393 200.309L192.002 197.126L184.799 193.484L181.714 191.924C184.227 177.015 176.943 161.582 162.741 154.402C145.267 145.567 123.941 152.57 115.107 170.043ZM135.791 172.457C139.329 174.246 140.747 178.565 138.958 182.103C137.169 185.641 132.851 187.059 129.313 185.27C125.775 183.481 124.356 179.163 126.145 175.625C127.934 172.086 132.253 170.668 135.791 172.457Z" fill="url(#paint50_linear_1078_21)"/>
<path d="M164.316 180.751L193.096 195.302L191.487 198.484L196.612 201.076L198.221 197.893L200.783 199.189L199.174 202.371L202.131 203.866L203.74 200.684L207.88 202.777L207.118 204.284L212.44 206.975L213.202 205.468L215.567 206.664L214.087 209.591L220.436 212.801L221.916 209.874L226.803 212.344L225.194 215.527L230.418 218.168L232.027 214.986L238.108 218.06C238.826 218.423 239.386 219.035 239.684 219.783L244.509 231.877C245.11 233.384 244.527 235.105 243.132 235.936L237.195 239.473C236.224 240.051 235.025 240.092 234.017 239.583L160.73 202.529L164.316 180.751Z" fill="url(#paint51_linear_1078_21)"/>
<path d="M131.838 215.853C149.311 224.687 170.638 217.684 179.472 200.211C188.306 182.738 181.303 161.412 163.83 152.577C146.357 143.743 125.031 150.746 116.197 168.219C107.362 185.692 114.365 207.018 131.838 215.853ZM130.403 183.446C126.865 181.657 125.446 177.338 127.235 173.8C129.024 170.262 133.343 168.844 136.881 170.633C140.419 172.422 141.837 176.74 140.048 180.278C138.259 183.817 133.941 185.235 130.403 183.446Z" fill="url(#paint52_linear_1078_21)"/>
<path d="M173.304 208.888L234.013 239.583C235.021 240.092 236.221 240.051 237.192 239.473L243.129 235.936C244.024 235.403 244.579 234.501 244.707 233.526C239.174 227.531 186.579 204.564 184.611 199.837C183.912 198.156 183.792 195.609 185.888 191.66L182.803 190.1C185.317 175.191 178.033 159.758 163.83 152.577C146.357 143.743 125.031 150.746 116.197 168.219C107.362 185.692 114.365 207.019 131.838 215.853C146.04 223.033 162.787 219.751 173.304 208.888ZM136.881 170.633C140.419 172.422 141.837 176.74 140.048 180.278C138.259 183.817 133.941 185.235 130.403 183.446C126.865 181.657 125.446 177.338 127.235 173.8C129.024 170.262 133.342 168.844 136.881 170.633Z" fill="url(#paint53_linear_1078_21)"/>
<path d="M134.979 209.643C149.023 216.744 166.164 211.115 173.265 197.071C180.365 183.028 174.737 165.887 160.693 158.786C146.649 151.686 129.508 157.314 122.408 171.358C115.307 185.402 120.935 202.543 134.979 209.643ZM130.404 183.445C126.866 181.656 125.448 177.338 127.237 173.8C129.026 170.262 133.344 168.844 136.882 170.632C140.42 172.421 141.839 176.74 140.05 180.278C138.261 183.816 133.942 185.234 130.404 183.445Z" fill="url(#paint54_linear_1078_21)"/>
<path d="M86.8281 229.306C86.8281 229.306 120.213 240.482 138.888 226.264C140.046 225.383 141.507 224.998 142.944 225.232L150.078 226.394C153.073 226.882 155.925 224.942 156.571 221.977C156.939 220.286 157.116 218.437 156.741 216.848L143.273 216.036L143.658 214.288C143.658 214.288 137.706 215.744 137.586 220.402C137.586 220.402 123.623 229.548 98.1549 215.351C98.1549 215.351 88.2377 223.113 86.8281 229.306Z" fill="url(#paint55_linear_1078_21)"/>
<g opacity="0.3">
<path d="M344.685 61.9282C343.908 61.8964 343.303 61.2401 343.335 60.463C343.397 58.9527 343.395 57.4176 343.327 55.8996C343.293 55.1316 343.881 54.48 344.645 54.4315C344.654 54.431 344.663 54.4304 344.672 54.4298C345.449 54.3953 346.107 54.9975 346.142 55.775C346.212 57.3726 346.215 58.9891 346.15 60.5787C346.12 61.3057 345.544 61.8814 344.834 61.9264C344.785 61.9295 344.735 61.9305 344.685 61.9282ZM342.492 48.5337C342.219 47.0398 341.879 45.5437 341.481 44.0852C341.277 43.3352 341.719 42.5605 342.47 42.3558C343.224 42.153 343.995 42.5941 344.199 43.3448C344.618 44.8791 344.976 46.4542 345.264 48.0258C345.404 48.791 344.897 49.5251 344.132 49.6651C344.076 49.6753 344.02 49.682 343.966 49.6856C343.263 49.7302 342.622 49.2433 342.492 48.5337ZM339.04 37.0899C338.443 35.6982 337.778 34.3157 337.063 32.98C336.695 32.2943 336.954 31.4404 337.639 31.0733C338.325 30.7072 339.178 30.9646 339.546 31.6503C340.299 33.0569 341 34.5132 341.629 35.9784C341.936 36.6932 341.605 37.5214 340.89 37.8287C340.738 37.8941 340.58 37.9306 340.424 37.9404C339.846 37.9771 339.282 37.6523 339.04 37.0899ZM333.116 26.7055C332.221 25.481 331.263 24.2815 330.268 23.1393C329.757 22.5526 329.818 21.6627 330.405 21.1519C330.992 20.6416 331.881 20.7031 332.392 21.2887C333.44 22.4913 334.448 23.7545 335.39 25.0427C335.849 25.6708 335.712 26.5523 335.084 27.0111C334.859 27.1754 334.602 27.2633 334.344 27.2798C333.879 27.3093 333.411 27.1085 333.116 26.7055ZM325.025 17.8998C323.884 16.907 322.684 15.9489 321.458 15.0531C320.83 14.5935 320.694 13.7122 321.153 13.0844C321.612 12.4561 322.493 12.3196 323.121 12.7793C324.41 13.7218 325.673 14.73 326.874 15.7746C327.461 16.2848 327.523 17.1747 327.013 17.7617C326.755 18.0576 326.402 18.2201 326.039 18.2431C325.682 18.2656 325.317 18.1531 325.025 17.8998ZM315.188 11.1038C313.854 10.3868 312.472 9.71868 311.081 9.11721C310.367 8.80861 310.038 7.97922 310.346 7.26559C310.655 6.55138 311.484 6.22246 312.198 6.53106C313.662 7.16372 315.117 7.86749 316.522 8.62191C317.207 8.99031 317.464 9.84401 317.096 10.5295C316.857 10.9747 316.412 11.2388 315.943 11.2687C315.689 11.2849 315.428 11.2331 315.188 11.1038ZM262.885 10.4481C262.519 9.76175 262.778 8.90833 263.465 8.54221C264.871 7.79252 266.329 7.0939 267.799 6.46639C268.514 6.16079 269.342 6.49301 269.647 7.20865C269.953 7.92357 269.62 8.75138 268.905 9.05698C267.51 9.65273 266.126 10.3163 264.79 11.0284C264.607 11.1261 264.412 11.1792 264.218 11.1915C263.683 11.2254 263.153 10.9514 262.885 10.4481ZM304.096 6.66011C302.636 6.25822 301.141 5.91471 299.652 5.63987C298.887 5.49823 298.382 4.76342 298.523 3.99856C298.664 3.23313 299.399 2.73167 300.164 2.86944C301.732 3.15916 303.306 3.5207 304.844 3.94419C305.594 4.15079 306.034 4.92609 305.828 5.67636C305.664 6.27125 305.142 6.67156 304.559 6.70847C304.407 6.71806 304.251 6.7026 304.096 6.66011ZM274.18 5.63687C273.976 4.88618 274.421 4.11259 275.172 3.90943C276.71 3.49367 278.287 3.13885 279.857 2.85399C280.623 2.71164 281.356 3.22369 281.495 3.98883C281.633 4.75412 281.125 5.48707 280.36 5.62614C278.867 5.89683 277.368 6.2339 275.907 6.62935C275.813 6.65453 275.72 6.66927 275.627 6.67528C274.972 6.71677 274.357 6.29442 274.18 5.63687ZM292.291 4.80706C290.779 4.74196 289.245 4.74124 287.729 4.80548C286.952 4.83882 286.295 4.23549 286.262 3.4579C286.23 2.69089 286.817 2.04106 287.58 1.99256C287.59 1.99199 287.6 1.99127 287.61 1.99127C289.205 1.92317 290.821 1.9236 292.412 1.99185C293.189 2.02575 293.792 2.68274 293.759 3.46004C293.728 4.18584 293.152 4.75998 292.442 4.80505C292.393 4.80834 292.342 4.80877 292.291 4.80706Z" fill="#91B3FA"/>
<path d="M255.948 16.6155C256.225 16.5979 256.5 16.4989 256.734 16.3132C257.302 15.8614 257.89 15.4144 258.48 14.9834C259.109 14.525 259.246 13.6435 258.788 13.0154C258.329 12.3868 257.448 12.2481 256.82 12.7081C256.199 13.1611 255.581 13.6313 254.982 14.1066C254.373 14.5902 254.271 15.4767 254.755 16.0854C255.053 16.4613 255.504 16.6439 255.948 16.6155Z" fill="#91B3FA"/>
</g>
<g opacity="0.3">
<path d="M235.414 54.3326C236.092 54.2895 236.658 53.7596 236.725 53.0613C236.794 52.3385 236.88 51.6048 236.979 50.8812C237.085 50.1103 236.546 49.3997 235.776 49.2936C235.002 49.1873 234.294 49.7267 234.188 50.4972C234.084 51.259 233.994 52.0317 233.921 52.7927C233.846 53.5672 234.414 54.2549 235.189 54.3293C235.264 54.3365 235.34 54.3373 235.414 54.3326Z" fill="#91B3FA"/>
<path d="M290.668 114.467C289.89 114.478 289.25 113.857 289.239 113.078C289.228 112.3 289.849 111.662 290.627 111.65C292.108 111.628 293.611 111.544 295.112 111.398C295.882 111.32 296.575 111.889 296.65 112.663C296.726 113.438 296.159 114.126 295.385 114.202C294.735 114.265 294.086 114.318 293.439 114.359C292.516 114.417 291.584 114.454 290.668 114.467ZM301.262 111.896C301.082 111.139 301.551 110.38 302.307 110.201C303.761 109.856 305.215 109.447 306.63 108.983C307.368 108.739 308.165 109.144 308.407 109.883C308.649 110.622 308.246 111.418 307.507 111.66C306.018 112.148 304.487 112.58 302.957 112.942C302.878 112.961 302.798 112.972 302.72 112.977C302.048 113.02 301.423 112.574 301.262 111.896ZM283.003 114.051C281.448 113.859 279.879 113.598 278.341 113.275C277.58 113.115 277.092 112.368 277.253 111.606C277.413 110.845 278.159 110.359 278.921 110.518C280.382 110.825 281.871 111.073 283.348 111.255C284.12 111.35 284.669 112.053 284.574 112.826C284.49 113.509 283.929 114.017 283.267 114.059C283.18 114.064 283.092 114.062 283.003 114.051ZM312.739 108.126C312.398 107.427 312.688 106.584 313.387 106.243C314.727 105.589 316.055 104.869 317.335 104.105C318.003 103.705 318.867 103.923 319.266 104.592C319.665 105.259 319.447 106.124 318.78 106.523C317.433 107.328 316.034 108.085 314.623 108.774C314.453 108.857 314.274 108.903 314.095 108.915C313.542 108.95 312.997 108.655 312.739 108.126ZM270.962 111.184C269.487 110.655 268.015 110.055 266.586 109.402C265.878 109.079 265.567 108.243 265.89 107.536C266.214 106.828 267.05 106.516 267.757 106.84C269.115 107.461 270.513 108.03 271.913 108.532C272.646 108.795 273.026 109.602 272.763 110.334C272.568 110.88 272.07 111.23 271.526 111.264C271.34 111.276 271.148 111.251 270.962 111.184ZM259.841 105.745C258.514 104.905 257.208 103.999 255.959 103.052C255.339 102.582 255.217 101.699 255.686 101.078C256.157 100.457 257.04 100.336 257.66 100.806C258.847 101.706 260.088 102.567 261.348 103.366C262.006 103.782 262.201 104.653 261.784 105.31C261.533 105.705 261.117 105.934 260.683 105.961C260.396 105.98 260.101 105.911 259.841 105.745ZM250.169 98.0118C249.056 96.902 247.979 95.7327 246.966 94.5372C246.463 93.9433 246.536 93.055 247.13 92.552C247.724 92.0484 248.612 92.1228 249.115 92.7159C250.077 93.8523 251.101 94.9627 252.158 96.0176C252.709 96.5671 252.71 97.459 252.161 98.0094C251.908 98.2625 251.584 98.3994 251.253 98.4203C250.864 98.4452 250.466 98.309 250.169 98.0118ZM242.414 88.353C241.571 87.027 240.776 85.6495 240.05 84.2589C239.689 83.5694 239.956 82.7183 240.646 82.358C241.334 81.9983 242.186 82.2652 242.546 82.9546C243.236 84.2749 243.991 85.5827 244.792 86.8424C245.209 87.499 245.015 88.3693 244.359 88.7864C244.151 88.9181 243.923 88.9888 243.694 89.0034C243.198 89.0349 242.7 88.8024 242.414 88.353ZM236.969 77.2203C236.44 75.7448 235.968 74.2271 235.565 72.7092C235.366 71.9572 235.813 71.1855 236.565 70.9862C237.315 70.7874 238.089 71.2341 238.288 71.9861C238.671 73.4284 239.119 74.8697 239.621 76.2713C239.883 77.0034 239.502 77.8099 238.77 78.072C238.642 78.1177 238.512 78.1442 238.384 78.1523C237.773 78.1909 237.185 77.8252 236.969 77.2203ZM234.104 65.1763C233.96 64.0303 233.851 62.8657 233.778 61.7153C233.751 61.2985 233.73 60.8832 233.712 60.4679C233.68 59.691 234.273 59.0197 235.061 59.0022C235.838 58.9695 236.494 59.5734 236.527 60.351C236.544 60.7453 236.564 61.1409 236.589 61.5368C236.659 62.6307 236.763 63.7372 236.899 64.8268C236.996 65.5985 236.448 66.3026 235.676 66.399C235.647 66.4025 235.618 66.4055 235.589 66.4073C234.852 66.4542 234.196 65.9192 234.104 65.1763Z" fill="#91B3FA"/>
<path d="M324.323 102.425C324.603 102.408 324.879 102.307 325.114 102.119C325.709 101.642 326.305 101.143 326.886 100.636C327.472 100.125 327.533 99.2352 327.022 98.649C326.51 98.0628 325.621 98.0013 325.034 98.5132C324.482 98.9944 323.916 99.4679 323.352 99.9212C322.745 100.407 322.647 101.294 323.134 101.901C323.433 102.273 323.881 102.454 324.323 102.425Z" fill="#91B3FA"/>
</g>
<path d="M326.984 78.4238C327.148 78.1952 327.148 77.8884 326.986 77.6594L322.345 71.1272C323.771 67.6676 324.656 63.9558 324.909 60.1132L331.95 56.2995C332.197 56.1657 332.332 55.8899 332.286 55.6129L330.713 46.1313C330.667 45.8541 330.451 45.6367 330.174 45.5899L322.278 44.2532C320.799 40.698 318.763 37.4702 316.297 34.6563L318.58 26.9759C318.66 26.7067 318.56 26.4164 318.332 26.253L310.516 20.6602C310.287 20.4968 309.98 20.4962 309.751 20.6589L303.219 25.2994C299.76 23.8733 296.048 22.9885 292.205 22.7356L288.392 15.6945C288.258 15.4474 287.982 15.3125 287.705 15.3586L278.223 16.9309C277.946 16.977 277.729 17.1936 277.682 17.4704L276.345 25.3658C272.79 26.8456 269.562 28.881 266.748 31.3476L259.068 29.0639C258.798 28.9839 258.508 29.0834 258.345 29.3118L252.752 37.1282C252.588 37.3566 252.588 37.6636 252.75 37.8925L257.391 44.4249C255.965 47.8843 255.08 51.5962 254.827 55.4389L247.786 59.2526C247.539 59.3862 247.404 59.6621 247.45 59.939L249.023 69.4209C249.069 69.6981 249.285 69.9154 249.562 69.9623L257.458 71.2992C258.937 74.8543 260.973 78.082 263.439 80.8961L261.156 88.5764C261.076 88.8455 261.175 89.136 261.404 89.2995L269.22 94.8923C269.449 95.0557 269.756 95.0563 269.984 94.8936L276.517 90.2529C279.976 91.6791 283.688 92.5637 287.531 92.8168L291.344 99.8579C291.478 100.105 291.754 100.24 292.031 100.194L301.513 98.6213C301.79 98.5754 302.007 98.3588 302.054 98.0818L303.391 90.1865C306.946 88.7066 310.174 86.6711 312.988 84.2047L320.668 86.4883C320.937 86.5684 321.228 86.4687 321.391 86.2404L326.984 78.4238Z" fill="#91B3FA"/>
<path d="M289.068 67.4038C283.759 66.9622 279.799 62.2847 280.241 56.9755C280.454 54.4038 281.657 52.0691 283.626 50.4021C285.595 48.735 288.097 47.9339 290.669 48.1484C295.977 48.5899 299.937 53.2675 299.496 58.5767C299.095 63.4065 295.187 67.1198 290.487 67.4181C290.021 67.4475 289.547 67.4434 289.068 67.4038ZM285.083 52.1223C283.572 53.4008 282.651 55.1905 282.487 57.1626C282.148 61.2325 285.185 64.8198 289.255 65.158C293.326 65.4978 296.912 62.4599 297.25 58.3896C297.588 54.3196 294.552 50.7324 290.482 50.3942C290.113 50.3636 289.746 50.3604 289.383 50.3835C287.807 50.4833 286.31 51.0835 285.083 52.1223Z" fill="#BDD0FB"/>
<path d="M291.175 81.3562C291.982 81.305 292.792 81.2128 293.6 81.0788C293.855 81.0367 294.109 80.9902 294.362 80.94C295.61 80.6915 296.837 80.3441 298.023 79.9033C298.039 79.8973 298.055 79.8913 298.071 79.8854C298.117 79.8682 298.163 79.8509 298.208 79.8332C298.297 79.7994 298.386 79.7645 298.475 79.7297C298.708 79.6377 298.845 79.408 298.83 79.1708C298.826 79.1131 298.814 79.0549 298.791 78.9985C298.677 78.7091 298.349 78.5684 298.06 78.6822C296.571 79.2712 295.009 79.7034 293.416 79.9671C285.506 81.2802 277.859 78.2987 272.861 72.7344C270.08 69.6398 268.12 65.7455 267.391 61.346C267.263 60.5745 267.175 59.8022 267.126 59.0322C266.798 53.8508 268.249 48.7563 271.311 44.4772C274.828 39.5616 280.049 36.3097 286.012 35.3209C298.326 33.28 309.996 41.6335 312.037 53.942C312.163 54.701 312.25 55.4635 312.298 56.2262C312.507 59.5314 311.991 62.8458 310.775 65.9294C310.743 66.0091 310.731 66.0915 310.736 66.1716C310.75 66.3825 310.882 66.5775 311.092 66.6601C311.382 66.7734 311.709 66.633 311.823 66.3424C313.1 63.105 313.642 59.6253 313.423 56.1554C313.372 55.3547 313.281 54.5545 313.149 53.7579C311.006 40.835 298.746 32.0668 285.828 34.2088C279.568 35.2468 274.087 38.6606 270.395 43.8212C267.18 48.3135 265.656 53.6618 266.001 59.1013C266.052 59.9097 266.145 60.7203 266.279 61.53C267.317 67.79 270.731 73.2709 275.891 76.9632C280.385 80.1781 285.734 81.7014 291.175 81.3562Z" fill="#BDD0FB"/>
<g opacity="0.3">
<path d="M395.16 95.9268C395.536 95.9029 395.866 95.636 395.953 95.25C396.116 94.5296 396.259 93.7944 396.378 93.0648C396.456 92.5908 396.135 92.1439 395.66 92.0658C395.186 91.9861 394.739 92.3099 394.661 92.7839C394.548 93.479 394.411 94.1797 394.256 94.8673C394.15 95.3354 394.444 95.8011 394.913 95.9075C394.996 95.9261 395.079 95.932 395.16 95.9268Z" fill="#91B3FA"/>
<path d="M395.94 89.2923C395.46 89.2735 395.086 88.8699 395.104 88.3893C395.15 87.1775 395.135 85.9492 395.058 84.7393C395.042 84.484 395.022 84.2281 395.001 83.9715C394.96 83.4931 395.316 83.0722 395.794 83.0316C396.249 83.0112 396.694 83.3466 396.735 83.8257C396.757 84.0941 396.777 84.362 396.794 84.6291C396.875 85.8976 396.891 87.1853 396.842 88.4561C396.825 88.9058 396.469 89.263 396.029 89.2909C396 89.2928 395.97 89.2929 395.94 89.2923ZM394.361 79.5999C394.06 78.1607 393.667 76.7273 393.193 75.3399C393.038 74.8849 393.28 74.3912 393.735 74.2354C394.187 74.0815 394.684 74.3224 394.839 74.7774C395.336 76.2314 395.748 77.7342 396.064 79.2432C396.162 79.7136 395.861 80.1746 395.39 80.2734C395.349 80.282 395.307 80.2872 395.266 80.2897C394.841 80.3168 394.451 80.0284 394.361 79.5999ZM391.506 71.2559C390.863 69.9364 390.129 68.6438 389.326 67.4126C389.064 67.0105 389.177 66.4712 389.58 66.209C389.984 65.9459 390.521 66.059 390.784 66.4621C391.626 67.7527 392.395 69.1095 393.07 70.4927C393.281 70.9245 393.102 71.4458 392.67 71.6563C392.564 71.7072 392.454 71.7355 392.344 71.7425C392.002 71.7643 391.665 71.5822 391.506 71.2559ZM386.688 63.8685C385.739 62.7454 384.711 61.6708 383.635 60.6766C383.282 60.3499 383.26 59.7997 383.586 59.447C383.912 59.0952 384.462 59.0722 384.815 59.3979C385.945 60.4415 387.022 61.5675 388.017 62.7455C388.328 63.1123 388.281 63.6617 387.914 63.9721C387.766 64.0964 387.588 64.1638 387.409 64.1752C387.143 64.192 386.873 64.0874 386.688 63.8685ZM380.213 57.881C379.02 57.0228 377.763 56.2308 376.476 55.5259C376.055 55.2955 375.9 54.7664 376.131 54.345C376.362 53.9233 376.89 53.7681 377.312 54.0002C378.661 54.7385 379.978 55.5692 381.229 56.4681C381.619 56.749 381.708 57.2925 381.427 57.6822C381.269 57.9026 381.027 58.0269 380.776 58.0429C380.582 58.0551 380.383 58.003 380.213 57.881ZM372.48 53.6469C371.115 53.1052 369.705 52.644 368.285 52.2762C367.821 52.1558 367.541 51.6807 367.662 51.2159C367.783 50.751 368.256 50.4725 368.723 50.5918C370.21 50.9775 371.691 51.4616 373.122 52.0296C373.568 52.2073 373.787 52.7128 373.61 53.159C373.481 53.4821 373.181 53.686 372.856 53.7067C372.732 53.7144 372.604 53.6961 372.48 53.6469ZM363.95 51.4335C362.499 51.2439 361.017 51.1429 359.544 51.1343C359.063 51.1307 358.676 50.739 358.679 50.2587C358.682 49.7784 359.073 49.3986 359.555 49.3936C361.099 49.4037 362.653 49.5093 364.175 49.7082C364.652 49.7707 364.988 50.2073 364.925 50.6838C364.871 51.1027 364.526 51.4131 364.119 51.439C364.064 51.4425 364.007 51.441 363.95 51.4335ZM349.732 51.5222C349.618 51.0553 349.904 50.5851 350.371 50.471C351.663 50.1557 352.995 49.906 354.326 49.7288C354.528 49.7007 354.729 49.676 354.931 49.6521C355.404 49.5828 355.841 49.9382 355.895 50.4167C355.951 50.8941 355.609 51.3253 355.131 51.3811C354.942 51.4026 354.752 51.4265 354.559 51.4532C353.286 51.6225 352.015 51.8607 350.783 52.1611C350.732 52.1737 350.681 52.1811 350.631 52.1843C350.218 52.2106 349.833 51.9379 349.732 51.5222Z" fill="#91B3FA"/>
</g>
<g opacity="0.3">
<path d="M361.147 124.504C359.633 124.581 358.101 124.565 356.593 124.459C356.114 124.425 355.753 124.009 355.787 123.529C355.821 123.05 356.24 122.694 356.716 122.723C358.154 122.825 359.615 122.839 361.06 122.766C361.54 122.742 361.948 123.112 361.973 123.591C361.996 124.067 361.633 124.474 361.159 124.504C361.155 124.504 361.151 124.504 361.147 124.504ZM364.672 123.291C364.59 122.818 364.908 122.368 365.381 122.287C366.806 122.042 368.23 121.708 369.614 121.294C370.072 121.158 370.559 121.418 370.696 121.879C370.834 122.339 370.572 122.823 370.112 122.962C368.662 123.395 367.169 123.745 365.677 124.002C365.645 124.007 365.614 124.011 365.583 124.013C365.145 124.04 364.748 123.734 364.672 123.291ZM352.075 123.859C350.586 123.567 349.103 123.182 347.666 122.714C347.209 122.565 346.959 122.074 347.108 121.617C347.256 121.16 347.746 120.912 348.204 121.059C349.575 121.506 350.99 121.873 352.41 122.153C352.882 122.245 353.189 122.703 353.096 123.173C353.018 123.57 352.683 123.85 352.298 123.874C352.225 123.879 352.15 123.874 352.075 123.859ZM373.245 120.943C373.052 120.503 373.253 119.989 373.693 119.796C375.016 119.216 376.317 118.549 377.559 117.812C377.972 117.567 378.506 117.704 378.751 118.116C378.996 118.529 378.86 119.063 378.446 119.308C377.144 120.081 375.779 120.782 374.391 121.39C374.295 121.432 374.196 121.455 374.097 121.461C373.743 121.484 373.396 121.286 373.245 120.943ZM343.431 121.042C342.059 120.402 340.712 119.671 339.427 118.87C339.019 118.616 338.895 118.079 339.149 117.671C339.403 117.263 339.94 117.138 340.348 117.393C341.574 118.158 342.858 118.855 344.167 119.465C344.602 119.668 344.79 120.185 344.587 120.621C344.448 120.919 344.16 121.102 343.853 121.121C343.713 121.131 343.567 121.106 343.431 121.042ZM335.713 116.232C334.533 115.281 333.399 114.249 332.345 113.165C332.009 112.821 332.017 112.271 332.361 111.936C332.705 111.601 333.256 111.607 333.591 111.952C334.597 112.985 335.679 113.969 336.806 114.878C337.18 115.179 337.238 115.727 336.937 116.101C336.777 116.299 336.549 116.408 336.314 116.423C336.105 116.437 335.89 116.374 335.713 116.232ZM329.369 109.713C328.45 108.505 327.597 107.231 326.834 105.925C326.591 105.51 326.731 104.978 327.146 104.735C327.561 104.492 328.094 104.633 328.336 105.047C329.063 106.292 329.877 107.507 330.754 108.658C331.045 109.04 330.971 109.587 330.589 109.877C330.447 109.986 330.283 110.043 330.118 110.054C329.837 110.072 329.553 109.953 329.369 109.713Z" fill="#91B3FA"/>
<path d="M381.774 116.904C381.941 116.893 382.107 116.834 382.25 116.724C382.839 116.268 383.417 115.793 383.969 115.312C384.331 114.996 384.369 114.447 384.053 114.084C383.737 113.724 383.188 113.686 382.825 114.001C382.299 114.46 381.747 114.913 381.185 115.348C380.805 115.642 380.736 116.188 381.03 116.568C381.213 116.805 381.495 116.922 381.774 116.904Z" fill="#91B3FA"/>
</g>
<path d="M384.085 100.503C384.195 100.35 384.195 100.144 384.086 99.991L380.981 95.6199C381.935 93.3049 382.527 90.8212 382.697 88.2499L387.408 85.698C387.573 85.6084 387.664 85.424 387.633 85.2384L386.581 78.8938C386.55 78.7084 386.405 78.5627 386.22 78.5315L380.937 77.6371C379.946 75.2581 378.584 73.0981 376.934 71.2152L378.462 66.0758C378.516 65.8956 378.449 65.7014 378.296 65.5919L373.066 61.8495C372.913 61.7401 372.707 61.7397 372.554 61.8486L368.183 64.9538C365.868 63.9995 363.384 63.4075 360.813 63.2382L358.261 58.5266C358.171 58.3614 357.987 58.2711 357.802 58.3019L351.457 59.354C351.271 59.3848 351.126 59.5298 351.095 59.7151L350.2 64.9983C347.821 65.9885 345.661 67.3505 343.778 69.0011L338.639 67.473C338.459 67.4195 338.265 67.486 338.155 67.639L334.413 72.8695C334.303 73.0223 334.303 73.2276 334.412 73.3808L337.517 77.7521C336.563 80.067 335.971 82.5508 335.802 85.1221L331.09 87.674C330.925 87.7635 330.835 87.9479 330.865 88.1335L331.917 94.4782C331.948 94.6637 332.093 94.809 332.279 94.8405L337.562 95.735C338.552 98.1139 339.914 100.274 341.565 102.157L340.037 107.296C339.983 107.476 340.05 107.671 340.203 107.78L345.433 111.523C345.586 111.632 345.791 111.632 345.944 111.523L350.316 108.418C352.631 109.372 355.114 109.964 357.686 110.134L360.238 114.845C360.327 115.01 360.512 115.101 360.697 115.07L367.042 114.018C367.227 113.987 367.373 113.842 367.404 113.657L368.299 108.374C370.678 107.383 372.837 106.021 374.72 104.371L379.86 105.899C380.04 105.953 380.234 105.886 380.343 105.733L384.085 100.503Z" fill="#91B3FA"/>
<path d="M358.705 93.245C356.952 93.0999 355.362 92.2807 354.226 90.9386C353.091 89.5975 352.545 87.8938 352.691 86.1418C352.992 82.5259 356.173 79.8339 359.795 80.1285C363.411 80.4301 366.108 83.6166 365.807 87.2315C365.662 88.9834 364.843 90.5737 363.501 91.7094C362.411 92.6325 361.081 93.1656 359.68 93.2544C359.358 93.275 359.032 93.2718 358.705 93.245ZM354.425 86.2854C354.318 87.5743 354.719 88.8275 355.554 89.8148C356.39 90.8013 357.56 91.4038 358.848 91.5111C360.137 91.6165 361.39 91.2169 362.377 90.3812C363.364 89.5466 363.966 88.376 364.073 87.0879C364.294 84.4279 362.31 82.0841 359.651 81.8624C359.41 81.8428 359.173 81.8408 358.94 81.8555C356.585 82.005 354.626 83.8661 354.425 86.2854Z" fill="#BDD0FB"/>
<path d="M360.168 102.955C360.717 102.92 361.269 102.857 361.824 102.766C362.924 102.583 364.008 102.289 365.046 101.889C365.093 101.871 365.139 101.853 365.186 101.835C365.545 101.693 365.757 101.338 365.734 100.971C365.729 100.882 365.709 100.793 365.675 100.705C365.498 100.259 364.992 100.042 364.546 100.217C363.58 100.599 362.568 100.879 361.54 101.049H361.539C361.483 101.058 361.426 101.067 361.37 101.076C358.932 101.456 356.491 101.214 354.228 100.404C352.999 99.9647 351.822 99.3567 350.727 98.5877C350.718 98.5814 350.709 98.5752 350.7 98.5689C350.673 98.5493 350.645 98.5306 350.619 98.511C347.437 96.2339 345.331 92.8542 344.691 88.994C344.608 88.4944 344.551 87.995 344.52 87.4964C344.307 84.1421 345.247 80.844 347.229 78.0731C349.506 74.8911 352.886 72.7867 356.746 72.1466C360.604 71.5083 364.484 72.408 367.667 74.6842C370.849 76.9612 372.954 80.3409 373.594 84.2011C373.676 84.6922 373.732 85.1859 373.763 85.6794C373.899 87.8196 373.565 89.9648 372.777 91.9609C372.729 92.0839 372.71 92.2111 372.718 92.335C372.739 92.6607 372.943 92.9618 373.267 93.0894C373.714 93.2646 374.219 93.0469 374.396 92.599C375.277 90.3654 375.651 87.9648 375.5 85.5712C375.465 85.0184 375.402 84.4664 375.311 83.9172C374.595 79.598 372.239 75.8169 368.679 73.2694C365.119 70.7226 360.782 69.7106 356.462 70.4301C352.143 71.1461 348.362 73.5007 345.815 77.0618C343.596 80.161 342.545 83.8508 342.783 87.6037C342.818 88.1608 342.882 88.7203 342.974 89.2788C344.361 97.6398 351.885 103.481 360.168 102.955Z" fill="#BDD0FB"/>
<defs>
<linearGradient id="paint0_linear_1078_21" x1="444.362" y1="511.152" x2="94.3347" y2="76.4395" gradientUnits="userSpaceOnUse">
<stop stop-color="#DAE3FE"/>
<stop offset="1" stop-color="#E9EFFD"/>
</linearGradient>
<linearGradient id="paint1_linear_1078_21" x1="84.5352" y1="200.445" x2="114.648" y2="200.445" gradientUnits="userSpaceOnUse">
<stop stop-color="#DAE3FE"/>
<stop offset="1" stop-color="#E9EFFD"/>
</linearGradient>
<linearGradient id="paint2_linear_1078_21" x1="51.0508" y1="200.442" x2="81.1014" y2="200.442" gradientUnits="userSpaceOnUse">
<stop stop-color="#DAE3FE"/>
<stop offset="1" stop-color="#E9EFFD"/>
</linearGradient>
<linearGradient id="paint3_linear_1078_21" x1="17.5938" y1="200.439" x2="47.5818" y2="200.439" gradientUnits="userSpaceOnUse">
<stop stop-color="#DAE3FE"/>
<stop offset="1" stop-color="#E9EFFD"/>
</linearGradient>
<linearGradient id="paint4_linear_1078_21" x1="84.164" y1="222.355" x2="114.224" y2="222.355" gradientUnits="userSpaceOnUse">
<stop stop-color="#DAE3FE"/>
<stop offset="1" stop-color="#E9EFFD"/>
</linearGradient>
<linearGradient id="paint5_linear_1078_21" x1="50.7344" y1="222.341" x2="80.7323" y2="222.341" gradientUnits="userSpaceOnUse">
<stop stop-color="#DAE3FE"/>
<stop offset="1" stop-color="#E9EFFD"/>
</linearGradient>
<linearGradient id="paint6_linear_1078_21" x1="17.336" y1="222.327" x2="47.2715" y2="222.327" gradientUnits="userSpaceOnUse">
<stop stop-color="#DAE3FE"/>
<stop offset="1" stop-color="#E9EFFD"/>
</linearGradient>
<linearGradient id="paint7_linear_1078_21" x1="83.7891" y1="244.074" x2="113.797" y2="244.074" gradientUnits="userSpaceOnUse">
<stop stop-color="#DAE3FE"/>
<stop offset="1" stop-color="#E9EFFD"/>
</linearGradient>
<linearGradient id="paint8_linear_1078_21" x1="50.418" y1="244.048" x2="80.3633" y2="244.048" gradientUnits="userSpaceOnUse">
<stop stop-color="#DAE3FE"/>
<stop offset="1" stop-color="#E9EFFD"/>
</linearGradient>
<linearGradient id="paint9_linear_1078_21" x1="17.082" y1="244.024" x2="46.9652" y2="244.024" gradientUnits="userSpaceOnUse">
<stop stop-color="#DAE3FE"/>
<stop offset="1" stop-color="#E9EFFD"/>
</linearGradient>
<linearGradient id="paint10_linear_1078_21" x1="83.4179" y1="265.717" x2="113.373" y2="265.717" gradientUnits="userSpaceOnUse">
<stop stop-color="#DAE3FE"/>
<stop offset="1" stop-color="#E9EFFD"/>
</linearGradient>
<linearGradient id="paint11_linear_1078_21" x1="50.1055" y1="265.682" x2="79.9985" y2="265.682" gradientUnits="userSpaceOnUse">
<stop stop-color="#DAE3FE"/>
<stop offset="1" stop-color="#E9EFFD"/>
</linearGradient>
<linearGradient id="paint12_linear_1078_21" x1="16.8242" y1="265.646" x2="46.6553" y2="265.646" gradientUnits="userSpaceOnUse">
<stop stop-color="#DAE3FE"/>
<stop offset="1" stop-color="#E9EFFD"/>
</linearGradient>
<linearGradient id="paint13_linear_1078_21" x1="83.0508" y1="287.286" x2="112.953" y2="287.286" gradientUnits="userSpaceOnUse">
<stop stop-color="#DAE3FE"/>
<stop offset="1" stop-color="#E9EFFD"/>
</linearGradient>
<linearGradient id="paint14_linear_1078_21" x1="49.793" y1="287.239" x2="79.6338" y2="287.239" gradientUnits="userSpaceOnUse">
<stop stop-color="#DAE3FE"/>
<stop offset="1" stop-color="#E9EFFD"/>
</linearGradient>
<linearGradient id="paint15_linear_1078_21" x1="16.5703" y1="287.193" x2="46.3495" y2="287.193" gradientUnits="userSpaceOnUse">
<stop stop-color="#DAE3FE"/>
<stop offset="1" stop-color="#E9EFFD"/>
</linearGradient>
<linearGradient id="paint16_linear_1078_21" x1="82.6836" y1="308.781" x2="112.534" y2="308.781" gradientUnits="userSpaceOnUse">
<stop stop-color="#DAE3FE"/>
<stop offset="1" stop-color="#E9EFFD"/>
</linearGradient>
<linearGradient id="paint17_linear_1078_21" x1="49.4844" y1="308.723" x2="79.2734" y2="308.723" gradientUnits="userSpaceOnUse">
<stop stop-color="#DAE3FE"/>
<stop offset="1" stop-color="#E9EFFD"/>
</linearGradient>
<linearGradient id="paint18_linear_1078_21" x1="16.3203" y1="308.666" x2="46.0478" y2="308.666" gradientUnits="userSpaceOnUse">
<stop stop-color="#DAE3FE"/>
<stop offset="1" stop-color="#E9EFFD"/>
</linearGradient>
<linearGradient id="paint19_linear_1078_21" x1="82.3126" y1="330.2" x2="112.111" y2="330.2" gradientUnits="userSpaceOnUse">
<stop stop-color="#DAE3FE"/>
<stop offset="1" stop-color="#E9EFFD"/>
</linearGradient>
<linearGradient id="paint20_linear_1078_21" x1="49.1719" y1="330.133" x2="78.909" y2="330.133" gradientUnits="userSpaceOnUse">
<stop stop-color="#DAE3FE"/>
<stop offset="1" stop-color="#E9EFFD"/>
</linearGradient>
<linearGradient id="paint21_linear_1078_21" x1="16.0664" y1="330.066" x2="45.7424" y2="330.066" gradientUnits="userSpaceOnUse">
<stop stop-color="#DAE3FE"/>
<stop offset="1" stop-color="#E9EFFD"/>
</linearGradient>
<linearGradient id="paint22_linear_1078_21" x1="81.9492" y1="351.548" x2="111.696" y2="351.548" gradientUnits="userSpaceOnUse">
<stop stop-color="#DAE3FE"/>
<stop offset="1" stop-color="#E9EFFD"/>
</linearGradient>
<linearGradient id="paint23_linear_1078_21" x1="48.8632" y1="351.47" x2="78.5488" y2="351.47" gradientUnits="userSpaceOnUse">
<stop stop-color="#DAE3FE"/>
<stop offset="1" stop-color="#E9EFFD"/>
</linearGradient>
<linearGradient id="paint24_linear_1078_21" x1="15.8164" y1="351.392" x2="45.4409" y2="351.392" gradientUnits="userSpaceOnUse">
<stop stop-color="#DAE3FE"/>
<stop offset="1" stop-color="#E9EFFD"/>
</linearGradient>
<linearGradient id="paint25_linear_1078_21" x1="81.586" y1="372.82" x2="111.281" y2="372.82" gradientUnits="userSpaceOnUse">
<stop stop-color="#DAE3FE"/>
<stop offset="1" stop-color="#E9EFFD"/>
</linearGradient>
<linearGradient id="paint26_linear_1078_21" x1="48.5586" y1="372.732" x2="78.1928" y2="372.732" gradientUnits="userSpaceOnUse">
<stop stop-color="#DAE3FE"/>
<stop offset="1" stop-color="#E9EFFD"/>
</linearGradient>
<linearGradient id="paint27_linear_1078_21" x1="15.5625" y1="372.644" x2="45.1358" y2="372.644" gradientUnits="userSpaceOnUse">
<stop stop-color="#DAE3FE"/>
<stop offset="1" stop-color="#E9EFFD"/>
</linearGradient>
<linearGradient id="paint28_linear_1078_21" x1="325.237" y1="-178.41" x2="238.807" y2="325.767" gradientUnits="userSpaceOnUse">
<stop stop-color="#4042E2"/>
<stop offset="1" stop-color="#4F52FF"/>
</linearGradient>
<linearGradient id="paint29_linear_1078_21" x1="177.977" y1="238.225" x2="330.809" y2="238.225" gradientUnits="userSpaceOnUse">
<stop stop-color="#4042E2"/>
<stop offset="1" stop-color="#4F52FF"/>
</linearGradient>
<linearGradient id="paint30_linear_1078_21" x1="266.291" y1="69.7368" x2="312.788" y2="-37.564" gradientUnits="userSpaceOnUse">
<stop stop-color="#09005D"/>
<stop offset="1" stop-color="#1A0F91"/>
</linearGradient>
<linearGradient id="paint31_linear_1078_21" x1="270.52" y1="139.248" x2="165.879" y2="864.518" gradientUnits="userSpaceOnUse">
<stop stop-color="#FEBBBA"/>
<stop offset="1" stop-color="#FF928E"/>
</linearGradient>
<linearGradient id="paint32_linear_1078_21" x1="267.775" y1="138.853" x2="163.134" y2="864.123" gradientUnits="userSpaceOnUse">
<stop stop-color="#FEBBBA"/>
<stop offset="1" stop-color="#FF928E"/>
</linearGradient>
<linearGradient id="paint33_linear_1078_21" x1="273.748" y1="221.731" x2="427.147" y2="-83.2622" gradientUnits="userSpaceOnUse">
<stop stop-color="#FE7062"/>
<stop offset="1" stop-color="#FF928E"/>
</linearGradient>
<linearGradient id="paint34_linear_1078_21" x1="67.1797" y1="388.945" x2="84.1481" y2="388.945" gradientUnits="userSpaceOnUse">
<stop stop-color="#09005D"/>
<stop offset="1" stop-color="#1A0F91"/>
</linearGradient>
<linearGradient id="paint35_linear_1078_21" x1="71.8977" y1="369.628" x2="68.6565" y2="397.915" gradientUnits="userSpaceOnUse">
<stop stop-color="#FEBBBA"/>
<stop offset="1" stop-color="#FF928E"/>
</linearGradient>
<linearGradient id="paint36_linear_1078_21" x1="93.0157" y1="389.376" x2="117.442" y2="389.376" gradientUnits="userSpaceOnUse">
<stop stop-color="#09005D"/>
<stop offset="1" stop-color="#1A0F91"/>
</linearGradient>
<linearGradient id="paint37_linear_1078_21" x1="97.8587" y1="372.615" x2="96.4031" y2="401.05" gradientUnits="userSpaceOnUse">
<stop stop-color="#FEBBBA"/>
<stop offset="1" stop-color="#FF928E"/>
</linearGradient>
<linearGradient id="paint38_linear_1078_21" x1="93.384" y1="396.314" x2="59.8345" y2="236.34" gradientUnits="userSpaceOnUse">
<stop stop-color="#09005D"/>
<stop offset="1" stop-color="#1A0F91"/>
</linearGradient>
<linearGradient id="paint39_linear_1078_21" x1="127.645" y1="177.731" x2="53.5154" y2="259.512" gradientUnits="userSpaceOnUse">
<stop stop-color="#4042E2"/>
<stop offset="1" stop-color="#4F52FF"/>
</linearGradient>
<linearGradient id="paint40_linear_1078_21" x1="113.237" y1="182.271" x2="5.17862" y2="380.605" gradientUnits="userSpaceOnUse">
<stop stop-color="#4042E2"/>
<stop offset="1" stop-color="#4F52FF"/>
</linearGradient>
<linearGradient id="paint41_linear_1078_21" x1="84.8272" y1="204.756" x2="92.3551" y2="184.199" gradientUnits="userSpaceOnUse">
<stop stop-color="#FEBBBA"/>
<stop offset="1" stop-color="#FF928E"/>
</linearGradient>
<linearGradient id="paint42_linear_1078_21" x1="91.3422" y1="138.495" x2="87.8448" y2="165.202" gradientUnits="userSpaceOnUse">
<stop stop-color="#4042E2"/>
<stop offset="1" stop-color="#4F52FF"/>
</linearGradient>
<linearGradient id="paint43_linear_1078_21" x1="97.4589" y1="139.296" x2="93.9615" y2="166.004" gradientUnits="userSpaceOnUse">
<stop stop-color="#4042E2"/>
<stop offset="1" stop-color="#4F52FF"/>
</linearGradient>
<linearGradient id="paint44_linear_1078_21" x1="103.33" y1="173.919" x2="58.4776" y2="209.642" gradientUnits="userSpaceOnUse">
<stop stop-color="#FEBBBA"/>
<stop offset="1" stop-color="#FF928E"/>
</linearGradient>
<linearGradient id="paint45_linear_1078_21" x1="86.0167" y1="162.168" x2="106.575" y2="188.636" gradientUnits="userSpaceOnUse">
<stop stop-color="#09005D"/>
<stop offset="1" stop-color="#1A0F91"/>
</linearGradient>
<linearGradient id="paint46_linear_1078_21" x1="98.8172" y1="171.962" x2="76.7439" y2="188.852" gradientUnits="userSpaceOnUse">
<stop stop-color="#FEBBBA"/>
<stop offset="1" stop-color="#FF928E"/>
</linearGradient>
<linearGradient id="paint47_linear_1078_21" x1="151.059" y1="183.121" x2="104.323" y2="223.491" gradientUnits="userSpaceOnUse">
<stop stop-color="#FEBBBA"/>
<stop offset="1" stop-color="#FF928E"/>
</linearGradient>
<linearGradient id="paint48_linear_1078_21" x1="152.034" y1="186.885" x2="106.541" y2="226.182" gradientUnits="userSpaceOnUse">
<stop stop-color="#FEBBBA"/>
<stop offset="1" stop-color="#FF928E"/>
</linearGradient>
<linearGradient id="paint49_linear_1078_21" x1="152.788" y1="185.123" x2="106.052" y2="225.494" gradientUnits="userSpaceOnUse">
<stop stop-color="#FEBBBA"/>
<stop offset="1" stop-color="#FF928E"/>
</linearGradient>
<linearGradient id="paint50_linear_1078_21" x1="93.7983" y1="102.578" x2="211.989" y2="258.59" gradientUnits="userSpaceOnUse">
<stop stop-color="#E1473D"/>
<stop offset="1" stop-color="#E9605A"/>
</linearGradient>
<linearGradient id="paint51_linear_1078_21" x1="220.211" y1="130.188" x2="198.253" y2="237.878" gradientUnits="userSpaceOnUse">
<stop stop-color="#FE7062"/>
<stop offset="1" stop-color="#FF928E"/>
</linearGradient>
<linearGradient id="paint52_linear_1078_21" x1="106.664" y1="181.137" x2="292.002" y2="194.994" gradientUnits="userSpaceOnUse">
<stop stop-color="#FF9085"/>
<stop offset="1" stop-color="#FB6FBB"/>
</linearGradient>
<linearGradient id="paint53_linear_1078_21" x1="190.95" y1="174.101" x2="235.78" y2="60.1186" gradientUnits="userSpaceOnUse">
<stop stop-color="#FE7062"/>
<stop offset="1" stop-color="#FF928E"/>
</linearGradient>
<linearGradient id="paint54_linear_1078_21" x1="215.646" y1="52.8329" x2="208.015" y2="67.6173" gradientUnits="userSpaceOnUse">
<stop stop-color="#FE7062"/>
<stop offset="1" stop-color="#FF928E"/>
</linearGradient>
<linearGradient id="paint55_linear_1078_21" x1="123.184" y1="218.245" x2="100.957" y2="329.119" gradientUnits="userSpaceOnUse">
<stop stop-color="#FEBBBA"/>
<stop offset="1" stop-color="#FF928E"/>
</linearGradient>
</defs>
</svg>
