<svg width="40" height="40" viewBox="0 0 40 40" fill="none" xmlns="http://www.w3.org/2000/svg">
<circle cx="20" cy="20" r="20" fill="#D9D9D9" fill-opacity="0.6"/>
<path d="M9 28.25C9 26.7913 9.57946 25.3924 10.6109 24.3609C11.6424 23.3295 13.0413 22.75 14.5 22.75H25.5C26.9587 22.75 28.3576 23.3295 29.3891 24.3609C30.4205 25.3924 31 26.7913 31 28.25C31 28.9793 30.7103 29.6788 30.1945 30.1945C29.6788 30.7103 28.9793 31 28.25 31H11.75C11.0207 31 10.3212 30.7103 9.80546 30.1945C9.28973 29.6788 9 28.9793 9 28.25Z" stroke="black" stroke-linejoin="round"/>
<path d="M20 17.25C22.2782 17.25 24.125 15.4032 24.125 13.125C24.125 10.8468 22.2782 9 20 9C17.7218 9 15.875 10.8468 15.875 13.125C15.875 15.4032 17.7218 17.25 20 17.25Z" stroke="black"/>
</svg>
